<svg xmlns="http://www.w3.org/2000/svg" viewBox="0 0 920 290" width="920" height="290">
<rect width="920" height="290" rx="10" fill="#ffffff" stroke="#d0d0d0" stroke-width="2"/>
<text x="28" y="36" font-family="Consolas, 'Courier New', monospace" font-size="19" fill="#1a1a1a">Input: "def calculate_sum(a, b):"</text>
<text x="28" y="66" font-family="Arial, Helvetica, sans-serif" font-size="18" fill="#666666">Model thinks: "What&apos;s most likely next?"</text>
<text x="28" y="98" font-family="Arial, Helvetica, sans-serif" font-size="20" font-weight="700" fill="#cc0000">Probabilities</text>
<text x="40" y="136" font-family="Consolas, 'Courier New', monospace" font-size="19" fill="#1a1a1a">return</text>
<rect x="160" y="118" width="640" height="26" rx="4" fill="#f7f7f7" stroke="#d0d0d0"/>
<rect x="160" y="118" width="544" height="26" rx="4" fill="#cc0000"/>
<text x="812" y="136" font-family="Arial, Helvetica, sans-serif" font-size="16" fill="#666666">85%</text>
<text x="40" y="170" font-family="Consolas, 'Courier New', monospace" font-size="19" fill="#1a1a1a">print</text>
<rect x="160" y="152" width="640" height="26" rx="4" fill="#f7f7f7" stroke="#d0d0d0"/>
<rect x="160" y="152" width="51" height="26" rx="4" fill="#cc0000"/>
<text x="812" y="170" font-family="Arial, Helvetica, sans-serif" font-size="16" fill="#666666">8%</text>
<text x="40" y="204" font-family="Consolas, 'Courier New', monospace" font-size="19" fill="#1a1a1a">pass</text>
<rect x="160" y="186" width="640" height="26" rx="4" fill="#f7f7f7" stroke="#d0d0d0"/>
<rect x="160" y="186" width="25" height="26" rx="4" fill="#cc0000"/>
<text x="812" y="204" font-family="Arial, Helvetica, sans-serif" font-size="16" fill="#666666">4%</text>
<text x="40" y="238" font-family="Consolas, 'Courier New', monospace" font-size="19" fill="#1a1a1a">for</text>
<rect x="160" y="220" width="640" height="26" rx="4" fill="#f7f7f7" stroke="#d0d0d0"/>
<rect x="160" y="220" width="12" height="26" rx="4" fill="#cc0000"/>
<text x="812" y="238" font-family="Arial, Helvetica, sans-serif" font-size="16" fill="#666666">2%</text>
<text x="40" y="272" font-family="Consolas, 'Courier New', monospace" font-size="19" fill="#1a1a1a">Other</text>
<rect x="160" y="254" width="640" height="26" rx="4" fill="#f7f7f7" stroke="#d0d0d0"/>
<rect x="160" y="254" width="6" height="26" rx="4" fill="#cc0000"/>
<text x="812" y="272" font-family="Arial, Helvetica, sans-serif" font-size="16" fill="#666666">1%</text>
</svg>