<svg xmlns="http://www.w3.org/2000/svg" viewBox="0 0 920 468" width="920" height="468">

<defs>
  <marker id="arrow-end" viewBox="0 0 10 10" markerWidth="7" markerHeight="7"
          refX="9" refY="5" orient="auto" markerUnits="userSpaceOnUse">
    <path d="M0,1 L9,5 L0,9 Z" fill="#cc0000"/>
  </marker>
  <marker id="arrow-start" viewBox="0 0 10 10" markerWidth="7" markerHeight="7"
          refX="1" refY="5" orient="auto" markerUnits="userSpaceOnUse">
    <path d="M9,1 L0,5 L9,9 Z" fill="#cc0000"/>
  </marker>
</defs>
<rect x="40" y="20" width="840" height="46" rx="8" fill="#f7f7f7" stroke="#d0d0d0"/>
<text x="56" y="46.324999999999996" font-family="Consolas, 'Courier New', monospace" font-size="19" fill="#1a1a1a">User: "What's the weather in Tokyo?"</text>
<line x1="460.0" y1="68" x2="460.0" y2="88" stroke="#cc0000" stroke-width="2" marker-end="url(#arrow-end)"/>
<rect x="40" y="94" width="840" height="46" rx="8" fill="#f7f7f7" stroke="#d0d0d0"/>
<text x="56" y="120.32499999999999" font-family="Consolas, 'Courier New', monospace" font-size="19" fill="#1a1a1a">AI decides: need weather data</text>
<line x1="460.0" y1="142" x2="460.0" y2="162" stroke="#cc0000" stroke-width="2" marker-end="url(#arrow-end)"/>
<rect x="40" y="168" width="840" height="46" rx="8" fill="#f7f7f7" stroke="#d0d0d0"/>
<text x="56" y="194.32500000000002" font-family="Consolas, 'Courier New', monospace" font-size="19" fill="#1a1a1a">AI outputs: tool_call { name: "get_weather", args: { city: "Tokyo" } }</text>
<line x1="460.0" y1="216" x2="460.0" y2="236" stroke="#cc0000" stroke-width="2" marker-end="url(#arrow-end)"/>
<rect x="40" y="242" width="840" height="46" rx="8" fill="#f7f7f7" stroke="#d0d0d0"/>
<text x="56" y="268.325" font-family="Consolas, 'Courier New', monospace" font-size="19" fill="#1a1a1a">Your system executes get_weather("Tokyo")</text>
<line x1="460.0" y1="290" x2="460.0" y2="310" stroke="#cc0000" stroke-width="2" marker-end="url(#arrow-end)"/>
<rect x="40" y="316" width="840" height="46" rx="8" fill="#f7f7f7" stroke="#d0d0d0"/>
<text x="56" y="342.325" font-family="Consolas, 'Courier New', monospace" font-size="19" fill="#1a1a1a">Result returned to AI</text>
<line x1="460.0" y1="364" x2="460.0" y2="384" stroke="#cc0000" stroke-width="2" marker-end="url(#arrow-end)"/>
<rect x="40" y="390" width="840" height="46" rx="8" fill="#f7f7f7" stroke="#d0d0d0"/>
<text x="56" y="416.325" font-family="Consolas, 'Courier New', monospace" font-size="19" fill="#1a1a1a">AI: "The weather in Tokyo is 22°C and sunny"</text>
</svg>