<svg xmlns="http://www.w3.org/2000/svg" viewBox="0 0 920 672" width="920" height="672">

<defs>
  <marker id="arrow-end" viewBox="0 0 10 10" markerWidth="7" markerHeight="7"
          refX="9" refY="5" orient="auto" markerUnits="userSpaceOnUse">
    <path d="M0,1 L9,5 L0,9 Z" fill="#cc0000"/>
  </marker>
  <marker id="arrow-start" viewBox="0 0 10 10" markerWidth="7" markerHeight="7"
          refX="1" refY="5" orient="auto" markerUnits="userSpaceOnUse">
    <path d="M9,1 L0,5 L9,9 Z" fill="#cc0000"/>
  </marker>
</defs>
<rect x="40" y="20" width="840" height="80" rx="8" fill="#f7f7f7" stroke="#d0d0d0"/>
<text x="56" y="64.025" font-family="Consolas, 'Courier New', monospace" font-size="23" fill="#1a1a1a">User: "What's the weather in Tokyo?"</text>
<line x1="460.0" y1="102" x2="460.0" y2="122" stroke="#cc0000" stroke-width="2" marker-end="url(#arrow-end)"/>
<rect x="40" y="128" width="840" height="80" rx="8" fill="#f7f7f7" stroke="#d0d0d0"/>
<text x="56" y="172.025" font-family="Consolas, 'Courier New', monospace" font-size="23" fill="#1a1a1a">AI decides: need weather data</text>
<line x1="460.0" y1="210" x2="460.0" y2="230" stroke="#cc0000" stroke-width="2" marker-end="url(#arrow-end)"/>
<rect x="40" y="236" width="840" height="80" rx="8" fill="#f7f7f7" stroke="#d0d0d0"/>
<text x="56" y="264.5" font-family="Consolas, 'Courier New', monospace" font-size="23" fill="#1a1a1a">AI outputs: tool_call { name: "get_weather", args: { city: "Tokyo"</text>
<text x="56" y="295.55" font-family="Consolas, 'Courier New', monospace" font-size="23" fill="#1a1a1a">} }</text>
<line x1="460.0" y1="318" x2="460.0" y2="338" stroke="#cc0000" stroke-width="2" marker-end="url(#arrow-end)"/>
<rect x="40" y="344" width="840" height="80" rx="8" fill="#f7f7f7" stroke="#d0d0d0"/>
<text x="56" y="388.02500000000003" font-family="Consolas, 'Courier New', monospace" font-size="23" fill="#1a1a1a">Your system executes get_weather("Tokyo")</text>
<line x1="460.0" y1="426" x2="460.0" y2="446" stroke="#cc0000" stroke-width="2" marker-end="url(#arrow-end)"/>
<rect x="40" y="452" width="840" height="80" rx="8" fill="#f7f7f7" stroke="#d0d0d0"/>
<text x="56" y="496.02500000000003" font-family="Consolas, 'Courier New', monospace" font-size="23" fill="#1a1a1a">Result returned to AI</text>
<line x1="460.0" y1="534" x2="460.0" y2="554" stroke="#cc0000" stroke-width="2" marker-end="url(#arrow-end)"/>
<rect x="40" y="560" width="840" height="80" rx="8" fill="#f7f7f7" stroke="#d0d0d0"/>
<text x="56" y="604.025" font-family="Consolas, 'Courier New', monospace" font-size="23" fill="#1a1a1a">AI: "The weather in Tokyo is 22°C and sunny"</text>
</svg>